# xmcd
# Track frame offsets:
# 150
# 15582
# 34272
# 47047
# 59170
# 77327
# 87442
# 96702
# 107985
# 119004
#
# Disc length: 1864 seconds
# Revision: 0
# Processed by: cddbd v1.4PL0 Copyright (c) Steve Scherf et al.
# Submitted via: VisiTrax 2.9.3.171 - For more info visit www.synapsa.com
#
DISCID=8b07460a
DTITLE=Ronnie McDowell - From the pen of Ronnie McDowell
DYEAR=1985
DGENRE=Country
TTITLE0=Don't Let That Door Hit You
TTITLE1=That Thing You Do
TTITLE2=Soulmates
TTITLE3=Woman In Chains
TTITLE4=The Slinky Song
TTITLE5=Sweet Little City Girl
TTITLE6=Money, Money, Money
TTITLE7=Me and Jesus Are Soulmates
TTITLE8=One Lonely Woman
TTITLE9=Ten White Cadillacs
EXTD=
EXTT0=
EXTT1=
EXTT2=
EXTT3=
EXTT4=
EXTT5=
EXTT6=
EXTT7=
EXTT8=
EXTT9=
PLAYORDER=
